<?xml version="1.0" encoding="utf-8"?>
<!-- Generator: Adobe Illustrator 27.4.0, SVG Export Plug-In . SVG Version: 6.00 Build 0)  -->
<svg version="1.1" id="Layer_1" xmlns="http://www.w3.org/2000/svg" xmlns:xlink="http://www.w3.org/1999/xlink" x="0px" y="0px"
	 viewBox="0 0 2382 452.6" style="enable-background:new 0 0 2382 452.6;" xml:space="preserve">
<style type="text/css">
	.st0{fill:#1F1F25;}
</style>
<g id="TrueLayer_Logo_-_Original">
	<g id="Original_Horizontal">
		<path class="st0" d="M701.3,120.5H559.5c-5.9,0-10.7,4.8-10.8,10.7v7c0,5.9,4.8,10.7,10.8,10.7h49.1c3.3,0,6,2.8,6,6.1v165
			c0,6.5,5.3,11.8,11.8,11.8h7.7c6.6,0,11.9-5.3,11.9-11.9c0,0,0,0,0,0v-165c0-3.4,2.7-6.1,6.1-6.1h49.2c5.9,0,10.7-4.8,10.7-10.7
			v-7C712,125.3,707.2,120.5,701.3,120.5z"/>
		<path class="st0" d="M1150.3,132.6c0-6.6-5.4-12-12-12h-7.8c-6.6,0-12,5.4-12,12v119.1c0,29.9-19.6,53.1-50.7,53.1
			c-30.8,0-50.1-23.5-50.1-53.7V132.6c0-6.6-5.3-12-12-12H998c-6.6,0-12,5.4-12,12v120.6c0.2,45.8,34.6,81.8,82,81.8
			c47.7,0,82.4-35.9,82.4-81.8L1150.3,132.6z"/>
		<path class="st0" d="M1548.4,303.8h-70.9c-3.3,0-6-2.7-6-6V132.4c0-6.6-5.3-11.9-11.9-11.9h-7.8c-6.6,0-11.9,5.3-11.9,11.9
			l0.1,188.1c0.2,6.3,5.3,11.4,11.7,11.5h96.6c5.9,0,10.6-4.7,10.6-10.6v-6.9C1559,308.6,1554.3,303.9,1548.4,303.8z"/>
		<path class="st0" d="M877.1,246.8c-0.1-0.1,0-0.2,0.1-0.3c0,0,0,0,0,0c26.1-10.6,44.4-33.5,44.4-61.2c0-35.9-29.6-64.6-65.8-64.6
			H780c-6.6,0-11.9,5.4-11.9,11.9v5.6l0,0V320c0,6.6,5.4,11.9,11.9,11.9h7.2c6.6,0,11.9-5.4,11.9-11.9v-61.1v-3.6c0-3.3,2.7-6,6-6.1
			h37.4c1.3-0.1,2.5,0.6,3.1,1.7l38.8,74.9c3.2,5.7,10.4,7.7,16.1,4.6l6.5-3.6c5.8-3.3,7.9-10.6,4.7-16.4L877.1,246.8z M853.5,223.3
			h-47.7c-3.3,0-5.9-2.6-6-5.9v-57.8l0,0V156c0-3.3,2.6-6,5.9-6.1h47c20,0,37.8,16.3,37.6,36.3C890.1,206.9,873,223.3,853.5,223.3
			L853.5,223.3z"/>
		<path class="st0" d="M1353.6,303.8l-84.1,0.1c-3.3,0-6-2.7-6-6v-4.8l0,0v-48c0-3.3,2.7-6,6-6.1h69.7c5.9,0,10.7-4.8,10.7-10.7v-7
			c0-5.9-4.8-10.7-10.7-10.7h-69.6c-3.3,0-6-2.7-6.1-6v-45.9l0,0v-3.6c0-3.3,2.7-6,6-6.1l83.9-0.1c5.9,0,10.7-4.8,10.7-10.7v-7
			c0-5.9-4.8-10.7-10.7-10.7l-109.4,0.1c-6.4,0.1-11.5,5.2-11.6,11.5v188c0,6.4,5.2,11.7,11.7,11.7h109.5c5.8,0,10.6-4.8,10.6-10.6
			v-6.9C1364.1,308.6,1359.4,303.9,1353.6,303.8z"/>
		<path class="st0" d="M2154,303.4l-84.1,0.1c-3.3,0-6-2.7-6-6v-4.7l0,0v-48c0-3.3,2.7-6.1,6.1-6.1h69.6c5.9,0,10.7-4.8,10.7-10.7
			v-7c0-5.9-4.8-10.7-10.7-10.7H2070c-3.3,0-6-2.7-6.1-6v-45.9l0,0v-3.6c0-3.3,2.7-6.1,6.1-6.1l83.9-0.1c5.9,0,10.7-4.8,10.7-10.7
			v-7c0-5.9-4.8-10.7-10.7-10.7l-109.4,0.1c-6.4,0.1-11.5,5.2-11.6,11.5v188c0,6.4,5.2,11.7,11.7,11.7H2154
			c5.8,0,10.6-4.8,10.6-10.6V314C2164.6,308.2,2159.8,303.4,2154,303.4z"/>
		<path class="st0" d="M1793.7,313.5L1706.4,121c-1.1-1.8-3-3-5.1-3.3h-3c-2.1,0.3-4,1.5-5.1,3.3l-87.6,192.4
			c-2.5,5.6,0,12.2,5.6,14.7l6.6,3c5.6,2.5,12.2,0,14.7-5.6l17.3-38.3c0.5-0.7,1.4-1.1,2.2-1.2h94.7c1.2,0,2.3,0.7,2.8,1.8
			l17.3,37.8c2.6,5.6,9.1,8.1,14.7,5.5l6.6-3C1793.8,325.7,1796.2,319.1,1793.7,313.5z M1732.4,260.1h-65.9c-1.7,0-3.1-1.4-3.1-3.1
			c0-0.4,0.1-0.9,0.3-1.3l34.6-77.6c0.2-0.4,0.6-0.6,1-0.7l0,0c0.4,0,0.8,0.3,1,0.7l0,0l34.8,77.6c0.7,1.6,0,3.4-1.6,4.1
			C1733.2,260,1732.8,260.1,1732.4,260.1L1732.4,260.1z"/>
		<path class="st0" d="M1970.4,128.1l-7.1-5.3c-5.2-3.8-12.5-2.7-16.4,2.4l-52.5,72.9c-0.7,0.8-1.9,1-2.7,0.4
			c-0.1-0.1-0.2-0.2-0.3-0.3c-7.5-10.3-52.8-72.9-52.8-72.9c-3.9-5.2-11.2-6.3-16.4-2.4l-7.1,5.3c-4.6,4-4.1,10.2-0.8,14.8
			l62.7,87.2l-0.1,89.7c0,6.5,5.3,11.8,11.8,11.8h7.7c6.5,0,11.8-5.3,11.8-11.8l0.1-90l63-87.1
			C1974.5,138.3,1975,132.1,1970.4,128.1z"/>
		<path class="st0" d="M2337.5,246.3c-0.1-0.1,0-0.2,0.1-0.3c0,0,0,0,0,0c26.1-10.6,44.4-33.5,44.4-61.2c0-35.9-29.6-64.6-65.8-64.6
			h-75.9c-6.6,0-11.9,5.4-11.9,11.9v187.3c0,6.6,5.4,11.9,11.9,11.9h7.2c6.6,0,11.9-5.4,11.9-11.9v-64.7c0-3.3,2.7-6,6-6.1h37.4
			c1.3-0.1,2.5,0.6,3.1,1.7l38.8,74.9c3.2,5.7,10.4,7.7,16.1,4.6l6.6-3.6c5.8-3.3,7.9-10.6,4.7-16.4L2337.5,246.3z M2313.8,222.8
			h-47.7c-3.3,0-5.9-2.7-6-5.9v-61.4c0-3.3,2.6-6,5.9-6.1h47c20,0,37.8,16.3,37.6,36.3C2350.4,206.4,2333.3,222.8,2313.8,222.8z"/>
		<path class="st0" d="M23.9,344.4l181.7,103.5c15.4,9.2,22.4,2.7,28.7-0.1l192.7-110.6c6.9-4.4,11.6-8.1,11.6-15.8
			s-5.8-11.6-9.3-13.8L377.4,273l49.3-28.6c8-4,16.5-13,16.5-24.3v-76.2c0-19.8-11.3-26-16.8-29C426,114.6,237.4,5.7,237.4,5.7
			C221-5.1,207.6,2,202.1,5.7L12.4,116c-8.5,5.8-11.2,12-11.2,18.3c0.1,9.5,9.9,16.7,11.2,17.6l49.3,29.3L9.4,213
			c-8.2,5-8.8,14.3-8.8,14.3l0,0C0,231.5,0,301.6,0,301.6C0,320,1.7,332,23.9,344.4z M404.5,322.9L219.8,426.3L41.2,325.7l56-32.1
			l115.9,66.2c3.5,2.5,9.8,2.3,13.1,0.5l125-72.3L404.5,322.9z M420.2,212.6l-49.9-30.7l49.7-29.6L420.2,212.6z M233.5,34.3
			l170.1,99.2l-55.8,34.1L233.4,98.2L233.5,34.3z M219.7,120l103.2,62.6l-103.2,59.5c0,0-0.1,0-0.1,0l-105.5-60.9L219.6,120H219.7z
			 M32.8,134.2L206.3,34v64.2l-120.4,68L32.8,134.2z M87.6,196.6l125.3,72.3c4.1,2.3,9.1,2.3,13.2,0.1l120.4-72.1l54.4,33
			L219.6,333.4L35.1,227.1L87.6,196.6z M24.5,251.2L73,278.9L24.5,307V251.2z"/>
	</g>
</g>
</svg>
